<svg width="38" height="42" viewBox="0 0 38 42" fill="none" xmlns="http://www.w3.org/2000/svg">
<path d="M23.7499 29.75V31.5C23.7499 34.3995 21.6233 36.75 18.9999 36.75C16.3766 36.75 14.2499 34.3995 14.2499 31.5V29.75M23.7499 29.75H14.2499M23.7499 29.75H29.4349C30.0405 29.75 30.3448 29.75 30.5901 29.6586C31.0585 29.4839 31.4251 29.0774 31.5831 28.5596C31.6661 28.2875 31.6661 27.9501 31.6661 27.2754C31.6661 26.9801 31.6658 26.8325 31.6449 26.6918C31.6054 26.4258 31.512 26.1736 31.3698 25.9546C31.2946 25.8389 31.1991 25.7333 31.0108 25.5252L30.394 24.8435C30.1951 24.6236 30.0833 24.3252 30.0833 24.0142V17.5C30.0833 10.7345 25.1211 5.24998 18.9999 5.25C12.8788 5.25002 7.91659 10.7345 7.91659 17.5V24.0143C7.91659 24.3253 7.80455 24.6236 7.60556 24.8435L6.98885 25.5251C6.79995 25.7339 6.7054 25.8388 6.63013 25.9547C6.48787 26.1737 6.39365 26.4258 6.35415 26.6918C6.33325 26.8325 6.33325 26.9802 6.33325 27.2754C6.33325 27.9501 6.33325 28.2874 6.4163 28.5596C6.57431 29.0773 6.94251 29.4839 7.41097 29.6586C7.65622 29.75 7.95936 29.75 8.56505 29.75H14.2499" stroke="black" stroke-width="2" stroke-linecap="round" stroke-linejoin="round"/>
</svg>
