<svg width="38" height="38" viewBox="0 0 38 38" fill="none" xmlns="http://www.w3.org/2000/svg">
<rect width="38" height="38" stroke="black"/>
<path d="M8.86605 31.5405L11.279 29.6101L11.2967 29.5965C11.7998 29.194 12.0536 28.991 12.3368 28.8463C12.5909 28.7165 12.8619 28.6219 13.1414 28.5646C13.4564 28.4999 13.7846 28.4999 14.4433 28.4999H28.1882C29.9583 28.4999 30.8443 28.4999 31.521 28.1551C32.1169 27.8515 32.6016 27.3666 32.9052 26.7707C33.25 26.094 33.25 25.2089 33.25 23.4389V11.395C33.25 9.62499 33.25 8.73865 32.9052 8.06193C32.6016 7.46608 32.1159 6.982 31.52 6.6784C30.8427 6.33325 29.9571 6.33325 28.1836 6.33325H9.81698C8.04348 6.33325 7.15607 6.33325 6.47868 6.6784C5.88283 6.982 5.39875 7.46608 5.09515 8.06193C4.75 8.73932 4.75 9.62673 4.75 11.4002V29.5626C4.75 31.25 4.75 32.0935 5.09589 32.5268C5.39671 32.9037 5.85269 33.1229 6.33488 33.1224C6.88932 33.1218 7.54844 32.5945 8.86605 31.5405Z" stroke="#3A2B20" stroke-width="3" stroke-linecap="round" stroke-linejoin="round"/>
</svg>
