<svg width="38" height="38" viewBox="0 0 38 38" fill="none" xmlns="http://www.w3.org/2000/svg">
<path d="M16.3205 21.6796L23.9935 14.0066M31.8427 9.32381L25.3659 30.3736C24.7854 32.26 24.495 33.2037 23.9944 33.5165C23.5601 33.7878 23.0225 33.8332 22.5496 33.6369C22.0043 33.4106 21.5617 32.527 20.6787 30.7611L16.5764 22.5564C16.4363 22.2762 16.3661 22.1366 16.2725 22.0152C16.1895 21.9075 16.0936 21.8104 15.9859 21.7274C15.8672 21.6359 15.73 21.5673 15.4623 21.4335L7.23872 17.3217C5.47282 16.4387 4.58979 15.9968 4.36351 15.4515C4.16728 14.9786 4.21203 14.4404 4.48335 14.0062C4.79619 13.5055 5.73979 13.2146 7.62682 12.634L28.6766 6.15715C30.1601 5.70068 30.9022 5.47263 31.4033 5.65659C31.8397 5.81682 32.1838 6.16058 32.344 6.59705C32.5279 7.0979 32.2997 7.83958 31.8437 9.32162L31.8427 9.32381Z" stroke="#3A2B20" stroke-width="3" stroke-linecap="round" stroke-linejoin="round"/>
</svg>
