<svg width="31" height="31" viewBox="0 0 31 31" fill="none" xmlns="http://www.w3.org/2000/svg">
<path d="M8.0653 27.3228C10.1356 28.5168 12.5378 29.2 15.0994 29.2C22.8867 29.2 29.2 22.8872 29.2 15.1C29.2 7.31279 22.8872 1 15.1 1C7.31279 1 1 7.31279 1 15.1C1 17.6617 1.68314 20.0638 2.87717 22.1342L2.88179 22.1422C2.99668 22.3414 3.05462 22.4418 3.08086 22.5368C3.10561 22.6263 3.11252 22.7068 3.10619 22.7995C3.09938 22.8991 3.06581 23.0023 2.997 23.2088L1.79251 26.8222L1.791 26.827C1.53686 27.5894 1.40979 27.9706 1.50037 28.2246C1.57934 28.446 1.75464 28.6208 1.97611 28.6998C2.22954 28.7902 2.60904 28.6637 3.36809 28.4107L3.37754 28.4072L6.99101 27.2027C7.19675 27.1341 7.30135 27.0993 7.40076 27.0925C7.49344 27.0862 7.57338 27.0946 7.66292 27.1193C7.75811 27.1456 7.85861 27.2036 8.05883 27.3191L8.0653 27.3228Z" stroke="black" stroke-width="2" stroke-linecap="round" stroke-linejoin="round"/>
</svg>
