<svg width="34" height="22" viewBox="0 0 34 22" fill="none" xmlns="http://www.w3.org/2000/svg">
<path d="M2.55661 13.9647C5.52234 16.9131 10.6945 20.9999 16.5789 20.9999C22.4633 20.9999 27.6345 16.9131 30.6002 13.9647C31.3824 13.1871 31.7748 12.797 32.0239 12.0335C32.2016 11.4888 32.2016 10.5112 32.0239 9.9665C31.7748 9.20301 31.3825 8.81284 30.6002 8.03518C27.6345 5.0868 22.4633 1 16.5789 1C10.6945 1 5.52234 5.08681 2.55661 8.03518C1.77384 8.81337 1.38242 9.20275 1.13327 9.9665C0.955576 10.5112 0.955576 11.4888 1.13327 12.0335C1.38242 12.7973 1.77384 13.1865 2.55661 13.9647Z" stroke="black" stroke-width="2" stroke-linecap="round" stroke-linejoin="round"/>
<path d="M13.2453 11C13.2453 12.8409 14.7377 14.3333 16.5786 14.3333C18.4196 14.3333 19.9119 12.8409 19.9119 11C19.9119 9.15905 18.4196 7.66667 16.5786 7.66667C14.7377 7.66667 13.2453 9.15905 13.2453 11Z" stroke="black" stroke-width="2" stroke-linecap="round" stroke-linejoin="round"/>
</svg>
