<svg width="30" height="35" viewBox="0 0 30 35" fill="none" xmlns="http://www.w3.org/2000/svg">
<path d="M28.8633 27.2756C28.334 28.4984 27.7074 29.624 26.9815 30.6589C25.9921 32.0696 25.1819 33.0461 24.5575 33.5884C23.5897 34.4785 22.5527 34.9344 21.4422 34.9603C20.645 34.9603 19.6836 34.7334 18.5645 34.2733C17.4418 33.8152 16.4099 33.5884 15.4665 33.5884C14.477 33.5884 13.4158 33.8152 12.2807 34.2733C11.1439 34.7334 10.2281 34.9732 9.5279 34.997C8.46303 35.0424 7.40161 34.5736 6.34214 33.5884C5.66593 32.9986 4.82012 31.9875 3.80688 30.5552C2.71976 29.0256 1.82599 27.2519 1.1258 25.2297C0.375914 23.0455 0 20.9305 0 18.8828C0 16.5372 0.506836 14.5142 1.52202 12.8189C2.31986 11.4572 3.38128 10.383 4.70972 9.59447C6.03817 8.80591 7.47356 8.40407 9.01934 8.37836C9.86515 8.37836 10.9743 8.63999 12.3527 9.15417C13.7271 9.67008 14.6097 9.93171 14.9966 9.93171C15.2859 9.93171 16.2663 9.62579 17.9283 9.01591C19.5 8.4503 20.8265 8.21611 21.9132 8.30837C24.8578 8.54601 27.0701 9.70681 28.5414 11.7981C25.9078 13.3938 24.6051 15.6288 24.631 18.4959C24.6548 20.7291 25.4649 22.5875 27.0572 24.0631C27.7787 24.7479 28.5846 25.2772 29.4812 25.6532C29.2867 26.217 29.0815 26.7571 28.8633 27.2756V27.2756ZM22.1098 0.700199C22.1098 2.4506 21.4703 4.08494 20.1956 5.59767C18.6574 7.39602 16.7969 8.43518 14.7792 8.27121C14.7535 8.06121 14.7386 7.8402 14.7386 7.60795C14.7386 5.92757 15.4702 4.12923 16.7692 2.65884C17.4178 1.91436 18.2426 1.29533 19.2429 0.801522C20.241 0.31508 21.1851 0.0460673 22.0731 0C22.099 0.234001 22.1098 0.468017 22.1098 0.700177V0.700199Z" fill="#FDF5DD"/>
</svg>
