<svg width="31" height="32" viewBox="0 0 31 32" fill="none" xmlns="http://www.w3.org/2000/svg">
<path d="M28.2477 18.2012L27.9231 17.6644C27.8726 17.581 27.8481 17.5396 27.8246 17.4979C27.5912 17.0826 27.4599 16.6192 27.4424 16.1454C27.4406 16.0978 27.4411 16.0491 27.4406 15.9522C27.4402 15.8553 27.4399 15.8063 27.4413 15.7586C27.4543 15.2837 27.5812 14.8194 27.8118 14.4054C27.835 14.3638 27.8594 14.3217 27.9093 14.2387L28.2343 13.6972C28.7545 12.8306 29.0154 12.3959 29.1185 11.9302C29.2102 11.5166 29.2115 11.0877 29.1228 10.6718C29.0225 10.2016 28.764 9.7583 28.2458 8.87168L27.8154 8.13522C27.2986 7.25107 27.0401 6.80884 26.6795 6.48892C26.3604 6.20589 25.985 5.99373 25.5782 5.86567C25.1191 5.72113 24.6084 5.72691 23.5876 5.73848L23.5821 5.73803L22.965 5.74502C22.8674 5.74612 22.8181 5.74659 22.7701 5.74561C22.2935 5.73579 21.8263 5.61273 21.4052 5.3871C21.3627 5.36436 21.3203 5.33988 21.2355 5.29093C21.1513 5.24229 21.1071 5.21676 21.0662 5.19142C20.6594 4.93894 20.3187 4.59476 20.0719 4.18584C20.047 4.14463 20.0235 4.10189 19.9757 4.01655L19.6716 3.47447C19.1685 2.57738 18.9166 2.12816 18.5599 1.80107C18.2443 1.51168 17.8708 1.29312 17.4643 1.15851C17.0053 1.00651 16.4921 1.00536 15.4656 1.00306L15.4613 1.00259L14.6174 1.00069L14.6079 1.00089C13.5907 0.998602 13.0808 0.997457 12.6266 1.14577C12.2236 1.27737 11.8544 1.4933 11.5432 1.77893C11.1914 2.10178 10.944 2.54549 10.4513 3.43344L10.1453 3.98493C10.099 4.06844 10.0777 4.11095 10.0536 4.15127C9.81001 4.55892 9.46945 4.90097 9.06381 5.15003C9.0237 5.17466 8.98208 5.19843 8.89895 5.24589C8.81577 5.29339 8.77494 5.31733 8.73329 5.33939C8.31218 5.56241 7.8429 5.68128 7.36411 5.68583C7.31675 5.68628 7.26795 5.68484 7.17164 5.68272L6.553 5.66912C5.52371 5.6465 5.00905 5.63543 4.54841 5.77658C4.14091 5.90145 3.7659 6.11212 3.44844 6.39408C3.08959 6.7128 2.83435 7.15516 2.32571 8.04083L1.90999 8.7647C1.40476 9.64446 1.15407 10.085 1.05931 10.5527C0.975469 10.9664 0.980231 11.3938 1.07537 11.8067C1.18292 12.2734 1.44672 12.71 1.97595 13.5851L2.29362 14.1103C2.34768 14.1997 2.37512 14.2443 2.40019 14.2891C2.63232 14.7043 2.76212 15.168 2.77883 15.6411C2.78064 15.6922 2.78068 15.7442 2.78076 15.8482C2.78084 15.9509 2.7814 16.0025 2.77972 16.053C2.76414 16.5202 2.6371 16.9759 2.41092 17.3837C2.38648 17.4278 2.36036 17.4715 2.30764 17.5593L1.99611 18.0783C1.47165 18.9519 1.21009 19.3898 1.10649 19.8574C1.01485 20.2711 1.0133 20.6998 1.10201 21.1158C1.20229 21.5859 1.46152 22.0295 1.97975 22.9161L2.4101 23.6524C2.92688 24.5366 3.18524 24.9784 3.54589 25.2983C3.86495 25.5813 4.24025 25.7942 4.64704 25.9222C5.10682 26.067 5.61927 26.0612 6.64298 26.0496L7.26009 26.0426C7.35772 26.0415 7.40704 26.0411 7.45506 26.0421C7.93158 26.0519 8.39873 26.1742 8.81987 26.3998C8.86232 26.4226 8.90471 26.447 8.98949 26.496C9.07447 26.5451 9.11682 26.5695 9.15782 26.5949C9.56466 26.8474 9.90636 27.1927 10.1532 27.6016C10.1749 27.6375 10.1959 27.675 10.2327 27.7407L10.5539 28.3133C11.057 29.2105 11.3085 29.6586 11.6653 29.9857C11.9809 30.2751 12.354 30.4949 12.7605 30.6295C13.2194 30.7814 13.7337 30.7826 14.7596 30.7849L15.6162 30.7868C16.6341 30.7891 17.1445 30.7903 17.5989 30.6419C18.0019 30.5103 18.3712 30.2946 18.6824 30.009C19.0317 29.6885 19.2763 29.2477 19.7619 28.3726L20.0786 27.8018C20.1249 27.7183 20.1485 27.6771 20.1726 27.6368C20.4162 27.2291 20.7551 26.8857 21.1608 26.6367C21.2008 26.6121 21.2428 26.5882 21.3256 26.5408C21.4088 26.4933 21.4511 26.4701 21.4927 26.4481C21.9138 26.2251 22.3836 26.1061 22.8623 26.1015C22.9091 26.1011 22.9564 26.1021 23.0504 26.1042L23.0535 26.1045L23.6722 26.1181C24.7015 26.1407 25.217 26.152 25.6777 26.0108C26.0852 25.886 26.4597 25.6756 26.7771 25.3936C27.1339 25.0768 27.3867 24.6365 27.8894 23.7612L28.314 23.0218C28.8193 22.142 29.0716 21.7024 29.1664 21.2348C29.2502 20.8211 29.2444 20.3931 29.1493 19.9802C29.0418 19.5139 28.7775 19.0769 28.2493 18.2036L28.2477 18.2012Z" stroke="black" stroke-width="2" stroke-linecap="round" stroke-linejoin="round"/>
<path d="M9.91414 12.8926C8.27386 15.7336 9.27145 19.3804 12.1423 21.0379C15.0132 22.6954 18.6702 21.7359 20.3105 18.8949C21.9508 16.0538 20.9532 12.407 18.0823 10.7495C15.2114 9.09204 11.5544 10.0515 9.91414 12.8926Z" stroke="black" stroke-width="2" stroke-linecap="round" stroke-linejoin="round"/>
</svg>
