<svg width="35" height="35" viewBox="0 0 35 35" fill="none" xmlns="http://www.w3.org/2000/svg">
<path d="M34.6639 14.2533H17.8728V20.9815H27.521C27.3659 21.9337 27.0177 22.8704 26.5077 23.7246C25.9234 24.7032 25.201 25.4482 24.4605 26.0156C22.2426 27.7151 19.6569 28.0626 17.8611 28.0626C13.3247 28.0626 9.44859 25.1307 7.94808 21.1467C7.88753 21.0021 7.84732 20.8527 7.79836 20.7051C7.46677 19.6912 7.28561 18.6173 7.28561 17.5011C7.28561 16.3395 7.48179 15.2275 7.8395 14.1773C9.25049 10.0354 13.2139 6.94175 17.8643 6.94175C18.7997 6.94175 19.7005 7.0531 20.5547 7.27517C22.5068 7.78269 23.8877 8.78226 24.7338 9.57291L29.8393 4.57298C26.7337 1.72545 22.6852 4.30526e-09 17.8558 4.30526e-09C13.9951 -8.30947e-05 10.4307 1.20281 7.50984 3.23573C5.14108 4.88437 3.19836 7.0917 1.88727 9.65527C0.667758 12.0322 0 14.6663 0 17.4985C0 20.3308 0.668778 22.9923 1.88829 25.3472V25.3631C3.17639 27.8632 5.06005 30.0159 7.34942 31.6569C9.34944 33.0906 12.9357 35 17.8558 35C20.6853 35 23.193 34.4899 25.4046 33.5338C26.9999 32.8442 28.4135 31.9447 29.6933 30.7886C31.3843 29.2611 32.7086 27.3716 33.6125 25.1978C34.5165 23.0239 35 20.5657 35 17.9006C35 16.6594 34.8753 15.3988 34.6639 14.2532V14.2533Z" fill="#FDF5DD"/>
</svg>
