<svg width="29" height="32" viewBox="0 0 29 32" fill="none" xmlns="http://www.w3.org/2000/svg">
<path d="M9.33333 11H6.33366C4.46682 11 3.5327 11 2.81966 11.3633C2.19245 11.6829 1.68289 12.1925 1.36331 12.8197C1 13.5327 1 14.4668 1 16.3337V25.667C1 27.5338 1 28.4668 1.36331 29.1798C1.68289 29.807 2.19245 30.3175 2.81966 30.637C3.53201 31 4.46501 31 6.32824 31L22.3385 31C24.2017 31 25.1333 31 25.8457 30.637C26.4729 30.3175 26.9841 29.807 27.3037 29.1798C27.6667 28.4675 27.6667 27.5358 27.6667 25.6726V16.3282C27.6667 14.465 27.6667 13.532 27.3037 12.8197C26.9841 12.1925 26.4729 11.6829 25.8457 11.3633C25.1326 11 24.2005 11 22.3337 11H9.33333ZM9.33333 11V6.2002C9.33333 3.32832 11.5 1 14.1728 1C15.5461 1 16.7846 1.61465 17.6655 2.60189" stroke="black" stroke-width="2" stroke-linecap="round" stroke-linejoin="round"/>
</svg>
