<svg width="31" height="26" viewBox="0 0 31 26" fill="none" xmlns="http://www.w3.org/2000/svg">
<path d="M29.2 24.4999C29.2 21.7714 26.5843 19.4501 22.9333 18.5898M19.8 24.5C19.8 21.039 15.5915 18.2334 10.4 18.2334C5.20852 18.2334 1 21.039 1 24.5M19.8 13.5333C23.261 13.5333 26.0667 10.7277 26.0667 7.26667C26.0667 3.80569 23.261 1 19.8 1M10.4 13.5333C6.93902 13.5333 4.13333 10.7277 4.13333 7.26667C4.13333 3.80569 6.93902 1 10.4 1C13.861 1 16.6667 3.80569 16.6667 7.26667C16.6667 10.7277 13.861 13.5333 10.4 13.5333Z" stroke="black" stroke-width="2" stroke-linecap="round" stroke-linejoin="round"/>
</svg>
