<svg width="28" height="34" viewBox="0 0 28 34" fill="none" xmlns="http://www.w3.org/2000/svg">
<path d="M18.4169 25.5V27.25C18.4169 30.1495 16.2903 32.5 13.6669 32.5C11.0436 32.5 8.91691 30.1495 8.91691 27.25V25.5M18.4169 25.5H8.91691M18.4169 25.5H24.1019C24.7075 25.5 25.0118 25.5 25.2571 25.4086C25.7255 25.2339 26.0921 24.8274 26.2501 24.3096C26.3331 24.0375 26.3331 23.7001 26.3331 23.0254C26.3331 22.7301 26.3328 22.5825 26.3119 22.4418C26.2724 22.1758 26.179 21.9236 26.0368 21.7046C25.9616 21.5889 25.8661 21.4833 25.6778 21.2752L25.061 20.5935C24.8621 20.3736 24.7502 20.0752 24.7502 19.7642V13.25C24.7502 6.4845 19.7881 0.999983 13.6669 1C7.54577 1.00002 2.58358 6.48452 2.58358 13.25V19.7643C2.58358 20.0753 2.47155 20.3736 2.27256 20.5935L1.65584 21.2751C1.46694 21.4839 1.37239 21.5888 1.29712 21.7047C1.15487 21.9237 1.06064 22.1758 1.02114 22.4418C1.00024 22.5825 1.00024 22.7302 1.00024 23.0254C1.00024 23.7001 1.00024 24.0374 1.08329 24.3096C1.24131 24.8273 1.60951 25.2339 2.07796 25.4086C2.32321 25.5 2.62635 25.5 3.23204 25.5H8.91691" stroke="black" stroke-width="2" stroke-linecap="round" stroke-linejoin="round"/>
</svg>
