<svg width="32" height="30" viewBox="0 0 32 30" fill="none" xmlns="http://www.w3.org/2000/svg">
<path d="M5.61605 26.7072L8.02899 24.7769L8.04673 24.7632C8.54977 24.3608 8.80362 24.1577 9.08683 24.013C9.34091 23.8832 9.61186 23.7887 9.89136 23.7313C10.2064 23.6667 10.5346 23.6667 11.1933 23.6667H24.9382C26.7083 23.6667 27.5943 23.6667 28.271 23.3219C28.8669 23.0183 29.3516 22.5333 29.6552 21.9375C30 21.2608 30 20.3757 30 18.6057V6.56177C30 4.79174 30 3.9054 29.6552 3.22868C29.3516 2.63283 28.8659 2.14875 28.27 1.84515C27.5927 1.5 26.7071 1.5 24.9336 1.5H6.56698C4.79348 1.5 3.90607 1.5 3.22868 1.84515C2.63283 2.14875 2.14875 2.63283 1.84515 3.22868C1.5 3.90607 1.5 4.79348 1.5 6.56698V24.7294C1.5 26.4168 1.5 27.2603 1.84589 27.6936C2.14671 28.0704 2.60269 28.2897 3.08488 28.2892C3.63932 28.2886 4.29844 27.7613 5.61605 26.7072Z" stroke="#3A2B20" stroke-width="3" stroke-linecap="round" stroke-linejoin="round"/>
</svg>
