<svg width="31" height="27" viewBox="0 0 31 27" fill="none" xmlns="http://www.w3.org/2000/svg">
<path d="M26.3333 12.375C26.3333 6.09276 21.3712 1 15.25 1C9.12884 1 4.16667 6.09276 4.16667 12.375M21.5833 18.0625V21.3125C21.5833 22.0676 21.5833 22.4451 21.6442 22.759C21.8941 24.0483 22.8761 25.0567 24.1323 25.3131C24.4382 25.3756 24.806 25.3756 25.5417 25.3756C26.2774 25.3756 26.6452 25.3756 26.9511 25.3131C28.2073 25.0567 29.1891 24.0483 29.4389 22.759C29.4998 22.4451 29.5 22.0676 29.5 21.3125V18.0625C29.5 17.3074 29.4998 16.9292 29.4389 16.6152C29.1891 15.326 28.2073 14.3189 26.9511 14.0624C26.6452 14 26.2774 14 25.5417 14C24.806 14 24.4382 14 24.1323 14.0624C22.8761 14.3189 21.8941 15.326 21.6442 16.6152C21.5833 16.9292 21.5833 17.3074 21.5833 18.0625ZM8.91667 18.0625V21.3125C8.91667 22.0676 8.91644 22.4451 8.85559 22.759C8.60572 24.0483 7.6239 25.0567 6.36772 25.3131C6.06182 25.3756 5.6941 25.3756 4.9584 25.3756C4.22271 25.3756 3.85485 25.3756 3.54895 25.3131C2.29276 25.0567 1.31072 24.0483 1.06085 22.759C1 22.4451 1 22.0676 1 21.3125V18.0625C1 17.3074 1 16.9292 1.06085 16.6152C1.31072 15.326 2.29276 14.3189 3.54895 14.0624C3.85485 14 4.2227 14 4.9584 14C5.69411 14 6.06182 14 6.36772 14.0624C7.6239 14.3189 8.60572 15.326 8.85559 16.6152C8.91644 16.9292 8.91667 17.3074 8.91667 18.0625Z" stroke="black" stroke-width="2" stroke-linecap="round" stroke-linejoin="round"/>
</svg>
