<svg width="34" height="34" viewBox="0 0 34 34" fill="none" xmlns="http://www.w3.org/2000/svg">
<path d="M12.75 29.75H21.25M17 4.25C12.3056 4.25 8.5 8.05558 8.5 12.75C8.5 14.4705 9.01119 16.0717 9.88999 17.4098C11.2414 19.4676 11.9164 20.4958 12.0042 20.6495C12.7844 22.0164 12.6407 21.5343 12.7389 23.1052C12.75 23.2818 12.75 23.5491 12.75 24.0833C12.75 24.8657 13.3843 25.5 14.1667 25.5L19.8333 25.5C20.6157 25.5 21.25 24.8657 21.25 24.0833C21.25 23.5491 21.25 23.2818 21.261 23.1052C21.3592 21.5343 21.2147 22.0164 21.995 20.6495C22.0827 20.4958 22.7589 19.4676 24.1103 17.4098C24.9891 16.0717 25.5003 14.4705 25.5003 12.75C25.5003 8.05558 21.6944 4.25 17 4.25Z" stroke="black" stroke-width="2" stroke-linecap="round" stroke-linejoin="round"/>
</svg>
