<svg width="38" height="39" viewBox="0 0 38 39" fill="none" xmlns="http://www.w3.org/2000/svg">
<path d="M30.0833 17.875C30.0833 11.5928 25.1212 6.5 19 6.5C12.8788 6.5 7.91667 11.5928 7.91667 17.875M25.3333 23.5625V26.8125C25.3333 27.5676 25.3333 27.9451 25.3942 28.259C25.6441 29.5483 26.6261 30.5567 27.8823 30.8131C28.1882 30.8756 28.556 30.8756 29.2917 30.8756C30.0274 30.8756 30.3952 30.8756 30.7011 30.8131C31.9573 30.5567 32.9391 29.5483 33.1889 28.259C33.2498 27.9451 33.25 27.5676 33.25 26.8125V23.5625C33.25 22.8074 33.2498 22.4292 33.1889 22.1152C32.9391 20.826 31.9573 19.8189 30.7011 19.5624C30.3952 19.5 30.0274 19.5 29.2917 19.5C28.556 19.5 28.1882 19.5 27.8823 19.5624C26.6261 19.8189 25.6441 20.826 25.3942 22.1152C25.3333 22.4292 25.3333 22.8074 25.3333 23.5625ZM12.6667 23.5625V26.8125C12.6667 27.5676 12.6664 27.9451 12.6056 28.259C12.3557 29.5483 11.3739 30.5567 10.1177 30.8131C9.81182 30.8756 9.4441 30.8756 8.7084 30.8756C7.97271 30.8756 7.60485 30.8756 7.29895 30.8131C6.04276 30.5567 5.06072 29.5483 4.81085 28.259C4.75 27.9451 4.75 27.5676 4.75 26.8125V23.5625C4.75 22.8074 4.75 22.4292 4.81085 22.1152C5.06072 20.826 6.04276 19.8189 7.29895 19.5624C7.60485 19.5 7.9727 19.5 8.7084 19.5C9.44411 19.5 9.81182 19.5 10.1177 19.5624C11.3739 19.8189 12.3557 20.826 12.6056 22.1152C12.6664 22.4292 12.6667 22.8074 12.6667 23.5625Z" stroke="black" stroke-width="2" stroke-linecap="round" stroke-linejoin="round"/>
</svg>
