<svg width="40" height="40" viewBox="0 0 40 40" fill="none" xmlns="http://www.w3.org/2000/svg">
<path d="M15.0001 15H12.0004C10.1336 15 9.19945 15 8.48641 15.3633C7.8592 15.6829 7.34964 16.1925 7.03006 16.8197C6.66675 17.5327 6.66675 18.4668 6.66675 20.3337V29.667C6.66675 31.5338 6.66675 32.4668 7.03006 33.1798C7.34964 33.807 7.8592 34.3175 8.48641 34.637C9.19876 35 10.1318 35 11.995 35L28.0052 35C29.8684 35 30.8001 35 31.5124 34.637C32.1396 34.3175 32.6509 33.807 32.9705 33.1798C33.3334 32.4675 33.3334 31.5358 33.3334 29.6726V20.3282C33.3334 18.465 33.3334 17.532 32.9705 16.8197C32.6509 16.1925 32.1396 15.6829 31.5124 15.3633C30.7994 15 29.8672 15 28.0004 15H15.0001ZM15.0001 15V10.2002C15.0001 7.32832 17.1668 5 19.8395 5C21.2129 5 22.4514 5.61465 23.3322 6.60189" stroke="black" stroke-width="2" stroke-linecap="round" stroke-linejoin="round"/>
</svg>
