<svg width="36" height="36" viewBox="0 0 36 36" fill="none" xmlns="http://www.w3.org/2000/svg">
<path d="M21 24H28.5V31.5M15 12H7.5V4.5M29.1263 13.5051C28.2853 11.4235 26.8772 9.61956 25.062 8.29834C23.2468 6.97712 21.0977 6.19128 18.8584 6.03076C16.6191 5.87024 14.3791 6.3411 12.394 7.38992C10.409 8.43873 8.75823 10.0238 7.62891 11.9642M6.87305 22.4956C7.71407 24.5772 9.12219 26.3812 10.9374 27.7024C12.7525 29.0236 14.9038 29.8084 17.1432 29.9689C19.3825 30.1295 21.6206 29.6587 23.6057 28.6099C25.5907 27.561 27.2404 25.9763 28.3697 24.0359" stroke="#FDF5DD" stroke-width="2" stroke-linecap="round" stroke-linejoin="round"/>
</svg>
