<svg width="19" height="28" viewBox="0 0 19 28" fill="none" xmlns="http://www.w3.org/2000/svg">
<path d="M5.25 26.5H13.75M9.5 1C4.80558 1 1 4.80558 1 9.5C1 11.2205 1.51119 12.8217 2.38999 14.1598C3.74135 16.2176 4.41644 17.2458 4.50415 17.3995C5.2844 18.7664 5.14074 18.2843 5.23893 19.8552C5.24997 20.0318 5.25 20.2991 5.25 20.8333C5.25 21.6157 5.88426 22.25 6.66667 22.25L12.3333 22.25C13.1157 22.25 13.75 21.6157 13.75 20.8333C13.75 20.2991 13.75 20.0318 13.761 19.8552C13.8592 18.2843 13.7147 18.7664 14.495 17.3995C14.5827 17.2458 15.2589 16.2176 16.6103 14.1598C17.4891 12.8217 18.0003 11.2205 18.0003 9.5C18.0003 4.80558 14.1944 1 9.5 1Z" stroke="black" stroke-width="2" stroke-linecap="round" stroke-linejoin="round"/>
</svg>
