<svg width="25" height="29" viewBox="0 0 25 29" fill="none" xmlns="http://www.w3.org/2000/svg">
<path d="M15.1272 20.5H22.6272V28M9.1272 8.5H1.6272V1M23.2535 10.0051C22.4125 7.92349 21.0044 6.11956 19.1892 4.79834C17.374 3.47712 15.2249 2.69128 12.9856 2.53076C10.7462 2.37024 8.50629 2.8411 6.52124 3.88992C4.53619 4.93873 2.88543 6.52381 1.7561 8.46418M1.00024 18.9956C1.84127 21.0772 3.24939 22.8812 5.06456 24.2024C6.87973 25.5236 9.03102 26.3084 11.2704 26.4689C13.5097 26.6295 15.7478 26.1587 17.7329 25.1099C19.7179 24.061 21.3676 22.4763 22.4969 20.5359" stroke="#FDF5DD" stroke-width="2" stroke-linecap="round" stroke-linejoin="round"/>
</svg>
