<svg width="32" height="32" viewBox="0 0 32 32" fill="none" xmlns="http://www.w3.org/2000/svg">
<path d="M13.5778 17.5869L21.2509 9.91378M29.1 5.23104L22.6232 26.2808C22.0428 28.1672 21.7523 29.1109 21.2517 29.4237C20.8175 29.695 20.2798 29.7404 19.8069 29.5441C19.2616 29.3179 18.819 28.4342 17.936 26.6683L13.8337 18.4636C13.6936 18.1834 13.6234 18.0439 13.5299 17.9224C13.4468 17.8147 13.351 17.7176 13.2432 17.6346C13.1246 17.5431 12.9874 17.4745 12.7196 17.3407L4.49604 13.2289C2.73014 12.3459 1.84711 11.9041 1.62084 11.3587C1.4246 10.8858 1.46935 10.3477 1.74067 9.91343C2.05352 9.41273 2.99711 9.12185 4.88414 8.54122L25.9339 2.06437C27.4174 1.60791 28.1595 1.37985 28.6606 1.56382C29.097 1.72405 29.4411 2.06781 29.6014 2.50428C29.7852 3.00512 29.557 3.74681 29.101 5.22885L29.1 5.23104Z" stroke="#3A2B20" stroke-width="3" stroke-linecap="round" stroke-linejoin="round"/>
</svg>
